<svg xmlns="http://www.w3.org/2000/svg" viewBox="3412 -689.15 21.671 20.15"><defs><style>.a{fill:#f65571;}</style></defs><g transform="translate(3412 -689.15)"><path class="a" d="M21.636,7.834c-.316-3.482-2.781-6.008-5.865-6.008A5.83,5.83,0,0,0,10.776,4.7,5.618,5.618,0,0,0,5.9,1.826C2.817,1.826.352,4.352.036,7.834a6.2,6.2,0,0,0,.184,2.283,9.793,9.793,0,0,0,3,5.007l7.55,6.852,7.68-6.851a9.794,9.794,0,0,0,3-5.007A6.209,6.209,0,0,0,21.636,7.834ZM21,8.776c-.41,1.739-5.014-7.371-6.4-6.116L9.4,8.376l1.376,12.479L16.8,15.676c-1.388-1.258-1.19-.761-1.6-2.5a4.805,4.805,0,0,1,.93-2.563,28.668,28.668,0,0,1,1.763-2.648L16.8,9.576l-4.9,3.1c.271-3.05-7.847-2-5.2-2,1.953,0,.384-.532,1.2,1.4h3.258l2.342,3.6c.8-1.9,4.7-5.558,6.7-5.558,2.647,0,.336-5.243.613-2.153C20.814,7.971,21.3,7.526,21,8.776Z" transform="translate(0 -1.826)"/></g></svg>