<svg xmlns="http://www.w3.org/2000/svg" viewBox="0 0 307.73 327.91"><defs><style>.cls-1{fill:#3873ff;}</style></defs><title>Recurso 1</title><g id="Capa_2" data-name="Capa 2"><g id="Capa_1-2" data-name="Capa 1"><path class="cls-1" d="M2.74,1.32C-15.42,12.56,63,74.09,54.06,157.63c-7.4,69.08-69.63,122-39,157.22,7.41,8.52,19.35,13.95,159.58,12.94C282.11,327,302.9,325,307,314.85c7.11-17.43-40.35-46.63-65-58.71-37.31-18.27-73.45-22.34-94.54-23.3,4.87-24.27,11.91-80.35-21.3-137.9C102.3,53.6,68.85,31.06,60,25.29,41.71,13.43,13.16-5.12,2.74,1.32Z"/><path class="cls-1" d="M2.74,1.32C-15.42,12.56,63,74.09,54.06,157.63c-7.4,69.08-69.63,122-39,157.22,7.41,8.52,19.35,13.95,159.58,12.94C282.11,327,302.9,325,307,314.85c7.11-17.43-40.35-46.63-65-58.71-37.31-18.27-73.45-22.34-94.54-23.3,4.87-24.27,11.91-80.35-21.3-137.9C102.3,53.6,68.85,31.06,60,25.29,41.71,13.43,13.16-5.12,2.74,1.32Z"/><path class="cls-1" d="M240.05,199c-11.14-10-24.54-11.74-31-12.12h0c1.27-6.31,2.93-19.71-3.88-33-10.72-20.93-37.38-31.67-44-25.6-5.56,5.11,9.43,16.33,10,43.72.31,15.85-4.33,31.84-1.41,45.21l0,0c12.19,6.2,28.83,5.78,44.07,10.09,26.36,7.47,33.41,24.82,39.77,20.73C261.21,243.2,257.58,214.69,240.05,199Z"/><path class="cls-1" d="M249.86,171.07a22.11,22.11,0,0,0-13.45-5.26h0a22.11,22.11,0,0,0-1.68-14.33c-4.66-9.09-16.24-13.76-19.11-11.12-2.42,2.22,4.1,7.09,4.33,19,.13,6.89-1.88,13.83-.61,19.64h0c5.3,2.69,12.52,2.51,19.15,4.38,11.45,3.25,14.52,10.78,17.28,9C259,190.27,257.47,177.88,249.86,171.07Z"/></g></g></svg>