<svg xmlns="http://www.w3.org/2000/svg" viewBox="5794 -60 29 19.308">
  <defs>
    <style>
      .cls-1 {
        fill: #646464;
      }
    </style>
  </defs>
  <path id="paper-plane" class="cls-1" d="M28.992,10.6c0-.012.005-.023.006-.035a.509.509,0,0,0,0-.108c0-.009,0-.018,0-.027a.484.484,0,0,0-.048-.14c0-.008-.009-.015-.014-.023s0,0,0,0l0,0-.01-.016a.477.477,0,0,0-.107-.111c-.009-.007-.02-.011-.029-.017a.463.463,0,0,0-.114-.056.416.416,0,0,0-.054-.012.467.467,0,0,0-.107-.01.453.453,0,0,0-.057,0c-.013,0-.025,0-.037,0L.385,15.834a.483.483,0,0,0-.128.9L8.288,20.97,9.7,28.786c0,.006,0,.012,0,.018a.454.454,0,0,0,0,.114.445.445,0,0,0,.01.056.466.466,0,0,0,.053.129c0,.008,0,.017.01.025l.006.006c.006.009.015.016.022.026a.493.493,0,0,0,.073.075s.007.009.012.012.015.007.023.012a.492.492,0,0,0,.092.048c.013,0,.025.011.039.014a.484.484,0,0,0,.134.021H10.2a.48.48,0,0,0,.344-.152l5.349-3.566,5.6,3.641a.483.483,0,0,0,.716-.239l6.758-18.342a.442.442,0,0,0,.016-.051c0-.007,0-.014,0-.021S28.991,10.6,28.992,10.6ZM23.4,13.677,11.816,22.2a.47.47,0,0,0-.05.048.2.2,0,0,0-.018.017c-.01.011-.019.022-.028.034s-.015.024-.023.036a.494.494,0,0,0-.044.091c0,.006-.006.011-.008.017s0,0,0,0l-1.328,4.315L9.26,20.92ZM11.061,27.687l1.316-4.347,2.049,1.332.586.381L13.021,26.38Zm14.068-15.98-16.4,8.4L1.9,16.508ZM21.515,28.126l-7.438-4.834L12.95,22.56,27.51,11.854Z" transform="translate(5794 -70.035)"/>
</svg>
