<svg xmlns="http://www.w3.org/2000/svg" viewBox="-16533.506 -5139.427 21.803 24.302"><defs><style>.a,.b{fill:none;stroke-linecap:round;stroke-linejoin:round;stroke-miterlimit:10;stroke-width:0.7px;}.a{stroke:#646464;}.b{stroke:#303030;}</style></defs><g transform="translate(-16546.563 -5151.285)"><path class="a" d="M20.686,13.854a7.791,7.791,0,0,1,4.307.632A8.049,8.049,0,0,1,29.3,18.991l1.324,3.438"/><path class="a" d="M17.01,15.257a8.139,8.139,0,0,0-2.9,9.563l1.324,3.458"/><path class="a" d="M15.889,22.433a6.68,6.68,0,0,0,.121,1.158"/><path class="a" d="M18.754,16.793a6.8,6.8,0,0,0-2.645,3.823"/><line class="b" x1="15.197" y2="5.844" transform="translate(17.942 28.981)"/><path class="a" d="M17,15.265l-.113-.3a1.976,1.976,0,1,1,3.688-1.418l.113.3"/><path class="a" d="M15.43,28.28a6.664,6.664,0,0,1,.176,3.993h0a1.758,1.758,0,0,0-.172,1.59A1.8,1.8,0,0,0,17.758,34.9l.184-.071,15.2-5.844.148-.057A1.8,1.8,0,0,0,34.319,26.6a1.96,1.96,0,0,0-.377-.6,1.857,1.857,0,0,0-.7-.45l-.033-.011A6.6,6.6,0,0,1,30.63,22.43"/><path class="a" d="M24.637,32.25a2.488,2.488,0,0,1-1.437,3.2l-.258.1a2.488,2.488,0,0,1-3.21-1.412"/></g></svg>