<svg xmlns="http://www.w3.org/2000/svg" viewBox="-16497 -5140 21.527 24.131"><defs><style>.a{fill:#646464;}</style></defs><g transform="translate(-16510.236 -5151.935)"><path class="a" d="M34.668,26.475a2.341,2.341,0,0,0-.46-.721,2.251,2.251,0,0,0-.821-.525,6.2,6.2,0,0,1-2.408-2.923c0-.008-.01-.013-.013-.021l-1.317-3.419a8.412,8.412,0,0,0-4.491-4.7,8.192,8.192,0,0,0-4.208-.68l-.023-.06A2.326,2.326,0,0,0,16.586,15.1l.019.05a8.473,8.473,0,0,0-2.8,9.8L15.124,28.4s0,0,0,0a6.335,6.335,0,0,1,.176,3.732,2.117,2.117,0,0,0-.171,1.853l.006.015a1.486,1.486,0,0,0,1.921.764l16.76-6.4a1.472,1.472,0,0,0,.851-1.9ZM16.1,23.935a.391.391,0,0,1-.067.006.351.351,0,0,1-.343-.283,7.076,7.076,0,0,1-.127-1.218.35.35,0,0,1,.344-.355h.006a.35.35,0,0,1,.35.344,6.311,6.311,0,0,0,.114,1.1A.351.351,0,0,1,16.1,23.935Zm2.88-6.857a6.455,6.455,0,0,0-2.509,3.627.35.35,0,1,1-.677-.178,7.206,7.206,0,0,1,1.4-2.733,7.13,7.13,0,0,1,1.384-1.286.35.35,0,1,1,.4.57Z"/><path class="a" d="M25.079,32.465l-.654.251-4.187,1.61-.654.251a2.78,2.78,0,0,0,1.34,1.247,2.833,2.833,0,0,0,2.165.051l.258-.1a2.835,2.835,0,0,0,1.573-1.488A2.786,2.786,0,0,0,25.079,32.465Z"/></g></svg>