<svg xmlns="http://www.w3.org/2000/svg" viewBox="3788 -1235 20 20"><defs><style>.a{fill:#646464;}</style></defs><g transform="translate(3788 -1235)"><g transform="translate(0)"><path class="a" d="M19.705,14.293C17.353,11.94,17,10.759,17,7A7,7,0,1,0,3,7a11.826,11.826,0,0,1-.333,3.713,8.576,8.576,0,0,1-2.374,3.58A1,1,0,0,0,1,16H6.551l-.05.5a3.5,3.5,0,1,0,7,0l-.05-.5H19A1,1,0,0,0,19.705,14.293ZM10,19a2.5,2.5,0,0,1-2.5-2.5l.05-.5h4.9l.051.5A2.5,2.5,0,0,1,10,19ZM1,15c3-3,3-5,3-8A6,6,0,1,1,16,7c0,3,0,5,3,8Z" transform="translate(0)"/></g></g></svg>